@startuml "sd6"

state "S-6" as Character
state "S-8" as Operator
state "S-9" as PunkOrSep
Operator : Введен оператор
Character : Введен\nсимвольный литерал
PunkOrSep : Введен\nразделитель или\nзнак препинания

[*] -right-> S35 : '
S35 -up-> S47 : \\
S35 -right-> S36 : [^']
S36 -right-> S37 : '
S37 : Символьный литерал
S37 -right-> Character : Любой символ

[*] -up-> S41 : |
S41 -up-> S43 : |
S41 -up-> S42 : =
S42 : ОП |=
S43 : ОП ||
S41 : ОП |
S41 -left-> Operator : [^|=]
S42 -left-> Operator : Любой символ
S43 -left-> Operator : Любой символ

[*] --> S46 : [[]{}().,:;]
S46 : Разделитель,\nзнак препинания
S46 -down-> PunkOrSep : Любой символ

S47 -down-> S36 : [^']
S47 -down-> S37 : '

@enduml